<svg version="1.1" id="Layer_1" xmlns="http://www.w3.org/2000/svg" xmlns:xlink="http://www.w3.org/1999/xlink" x="0px" y="0px"
	 width="100px" height="20px" viewBox="0 0 418 117" enable-background="new 0 0 418 117" xml:space="preserve">
<path fill="#FEFDFD" opacity="1.000000" stroke="none" 
	d="
M301.000000,118.000000 
	C200.666672,118.000000 100.833359,118.000000 1.000027,118.000000 
	C1.000018,79.000015 1.000018,40.000034 1.000009,1.000037 
	C140.333298,1.000025 279.666595,1.000025 418.999939,1.000012 
	C418.999939,39.999962 418.999939,78.999924 418.999969,117.999939 
	C379.833344,118.000000 340.666656,118.000000 301.000000,118.000000 
M53.391396,76.131371 
	C53.391396,81.539322 53.391396,86.947281 53.391396,92.288773 
	C55.965355,92.288773 57.825066,92.288773 59.634453,92.288773 
	C59.634453,82.723305 59.634453,73.627495 59.634453,64.581375 
	C51.039322,63.087860 51.056988,63.093826 48.497459,70.671799 
	C47.150471,74.659805 45.729130,78.622711 43.917408,83.811066 
	C42.051136,78.455643 40.644936,74.450607 39.259544,70.438385 
	C36.690094,62.997040 36.506397,62.895641 28.199095,64.657471 
	C28.199095,73.859276 28.199095,83.073769 28.199095,92.447281 
	C30.088425,92.447281 31.651413,92.447281 33.403072,92.447281 
	C33.403072,86.537300 33.403072,80.926544 33.924770,75.402283 
	C34.257599,75.295601 34.590427,75.188919 35.120014,75.803650 
	C36.767044,80.508438 38.271618,85.271553 40.157555,89.878540 
	C40.651939,91.086205 42.429325,92.663376 43.439472,92.545486 
	C44.793098,92.387497 46.602524,90.994064 47.115822,89.695946 
	C49.006054,84.915619 50.442188,79.955742 52.583355,75.101822 
	C52.919067,75.195152 53.254784,75.288483 53.391396,76.131371 
M225.373917,100.949989 
	C240.628464,91.055183 245.648132,76.722023 242.362762,59.475266 
	C238.491562,39.153210 226.160141,24.119934 210.477737,11.478139 
	C207.707153,9.244744 205.684982,10.138188 204.021149,13.017829 
	C200.110535,19.786108 196.129059,26.513729 192.133926,33.232635 
	C191.511017,34.280235 190.665665,35.195580 189.726135,36.431236 
	C188.644470,33.618393 187.781067,31.373140 186.798187,28.817207 
	C185.793396,29.479450 185.109497,29.713158 184.762070,30.191332 
	C178.247665,39.157032 172.906876,48.672104 171.203629,59.838318 
	C168.737747,76.004471 173.304749,89.752098 186.595474,99.495049 
	C198.591995,108.289268 211.657974,108.183990 225.373917,100.949989 
M125.875450,82.695641 
	C127.225014,84.797203 128.777283,86.798340 129.879242,89.022583 
	C131.797455,92.894417 134.638519,93.609154 138.522919,92.228149 
	C138.522919,82.835098 138.522919,73.586823 138.522919,64.287033 
	C136.490906,64.287033 134.752502,64.287033 132.395279,64.287033 
	C132.395279,70.067299 132.395279,75.542198 132.395279,81.017097 
	C128.654404,76.936363 125.669495,72.772453 123.224396,68.312592 
	C121.036774,64.322357 118.233658,62.857319 113.726410,64.514397 
	C113.726410,73.695251 113.726410,82.952400 113.726410,92.476486 
	C115.703644,92.476486 117.420258,92.476486 119.702835,92.476486 
	C119.702835,86.494659 119.702835,80.795998 119.702835,75.097336 
	C120.035606,75.001106 120.368378,74.904877 120.701157,74.808647 
	C122.288734,77.235802 123.876312,79.662964 125.875450,82.695641 
M384.290924,66.133614 
	C382.555817,65.214539 380.820709,64.295464 377.849304,62.721531 
	C377.849304,70.267952 377.849304,75.882881 377.849304,82.698486 
	C374.318390,77.132195 371.288818,72.915054 368.868011,68.373444 
	C366.705780,64.316856 363.827911,63.041229 359.393951,64.401733 
	C359.393951,73.735779 359.393951,83.122757 359.393951,92.836342 
	C361.479706,92.693504 363.199738,92.575706 365.600281,92.411301 
	C365.600281,86.441933 365.600281,80.976181 365.600281,75.510429 
	C369.662750,79.892426 372.820404,84.336533 375.467041,89.066582 
	C377.586487,92.854393 380.253662,93.619736 384.298401,92.074295 
	C384.298401,83.649780 384.298401,75.338524 384.290924,66.133614 
M298.397186,71.349991 
	C298.471161,66.750687 295.590332,64.640503 291.605438,64.259277 
	C287.383698,63.855396 283.093353,64.168579 278.774750,64.168579 
	C278.774750,73.861656 278.774750,83.201714 278.774750,92.774719 
	C282.673065,92.774719 286.156677,92.895500 289.628296,92.742935 
	C293.611755,92.567871 297.425293,91.545570 298.925903,87.355415 
	C300.471130,83.040642 298.840332,79.630615 294.920319,77.756790 
	C296.150177,75.684113 297.224731,73.873123 298.397186,71.349991 
M107.909569,92.793381 
	C108.392143,91.933540 109.508751,90.711960 109.257164,90.271004 
	C107.211494,86.685532 104.909737,83.246170 102.540817,79.534935 
	C106.389671,77.150162 108.862953,73.773064 107.095322,68.969421 
	C105.322662,64.152077 100.949036,64.006271 96.699158,63.970211 
	C93.750519,63.945194 90.801514,63.965397 87.684769,63.965397 
	C87.684769,73.790070 87.684769,83.127106 87.684769,92.499771 
	C89.838425,92.499771 91.592690,92.499771 93.883461,92.499771 
	C93.883461,88.827187 93.883461,85.435051 93.883461,81.867966 
	C98.835327,81.810905 99.238136,85.836441 100.936142,88.351173 
	C102.514412,90.688553 103.487877,93.553314 107.909569,92.793381 
M332.945190,66.736877 
	C332.945190,75.307297 332.945190,83.877716 332.945190,92.482216 
	C335.439423,92.482216 337.183075,92.482216 339.452820,92.482216 
	C339.452820,88.800552 339.452820,85.397964 339.452820,81.850487 
	C344.411224,81.734413 345.176422,85.663734 346.473053,88.312279 
	C348.538147,92.530365 351.278046,93.752014 356.125824,92.094070 
	C353.385284,87.783958 350.760010,83.655106 348.099609,79.471031 
	C352.149811,77.104774 354.302338,73.677536 352.722809,69.063248 
	C351.156860,64.488708 346.994995,64.036217 342.860657,63.988228 
	C340.368561,63.959297 337.861511,63.837067 335.391144,64.071976 
	C334.536133,64.153275 333.771515,65.185150 332.945190,66.736877 
M318.610596,92.339348 
	C323.535828,91.335487 326.246307,88.037056 326.541382,83.314957 
	C326.932465,77.056793 326.637726,70.755783 326.637726,64.231369 
	C324.608612,64.231369 322.846497,64.231369 320.524048,64.231369 
	C320.524048,69.980156 320.740356,75.615250 320.459534,81.225464 
	C320.208801,86.234276 316.297272,88.928940 312.907104,86.436371 
	C311.353027,85.293762 310.330566,82.596313 310.188354,80.526932 
	C309.816711,75.117973 310.063080,69.666550 310.063080,64.226212 
	C307.570709,64.226212 305.794800,64.226212 303.719116,64.226212 
	C303.719116,69.766235 303.521271,75.076866 303.762238,80.367508 
	C304.201965,90.022552 308.065430,93.250267 318.610596,92.339348 
M71.615768,63.959530 
	C69.873749,63.959530 68.131721,63.959530 66.483582,63.959530 
	C66.483582,73.978889 66.483582,83.192055 66.483582,92.514572 
	C72.111069,92.514572 77.360367,92.514572 82.819855,92.514572 
	C82.819855,90.797882 82.819855,89.370216 82.819855,87.634277 
	C79.383308,87.465263 76.165871,87.307022 72.673691,87.135269 
	C72.805565,84.875130 72.905304,83.165764 73.025970,81.097672 
	C76.160934,81.097672 78.772713,81.097672 81.633423,81.097672 
	C81.633423,79.286591 81.633423,77.870262 81.633423,76.141266 
	C78.715248,75.993874 75.966888,75.855064 72.996124,75.705017 
	C72.996124,73.506874 72.996124,71.602524 72.996124,69.463951 
	C76.178940,69.312149 79.103165,69.172684 82.416451,69.014664 
	C82.301476,67.141968 82.207672,65.614090 82.106087,63.959476 
	C78.543419,63.959476 75.554192,63.959476 71.615768,63.959530 
z"/>
<path fill="#FF6C28" opacity="1.000000" stroke="none" 
	d="
M225.050217,101.127258 
	C211.657974,108.183990 198.591995,108.289268 186.595474,99.495049 
	C173.304749,89.752098 168.737747,76.004471 171.203629,59.838318 
	C172.906876,48.672104 178.247665,39.157032 184.762070,30.191332 
	C185.109497,29.713158 185.793396,29.479450 186.798187,28.817207 
	C187.781067,31.373140 188.644470,33.618393 189.726135,36.431236 
	C190.665665,35.195580 191.511017,34.280235 192.133926,33.232635 
	C196.129059,26.513729 200.110535,19.786108 204.021149,13.017829 
	C205.684982,10.138188 207.707153,9.244744 210.477737,11.478139 
	C226.160141,24.119934 238.491562,39.153210 242.362762,59.475266 
	C245.648132,76.722023 240.628464,91.055183 225.050217,101.127258 
M183.418762,87.879242 
	C189.371780,99.556213 200.997345,105.254677 213.778778,101.751450 
	C224.528168,98.805161 232.971497,90.240448 232.960541,77.886963 
	C232.944519,59.823189 221.628418,48.448345 208.616318,38.331940 
	C207.673233,37.598728 204.681458,38.196083 203.575012,39.201420 
	C198.556885,43.760983 193.254578,48.221565 189.203629,53.585571 
	C181.666260,63.566029 178.014984,74.699295 183.418762,87.879242 
z"/>
<path fill="#0E0E0E" opacity="1.000000" stroke="none" 
	d="
M52.049141,75.063408 
	C50.442188,79.955742 49.006054,84.915619 47.115822,89.695946 
	C46.602524,90.994064 44.793098,92.387497 43.439472,92.545486 
	C42.429325,92.663376 40.651939,91.086205 40.157555,89.878540 
	C38.271618,85.271553 36.767044,80.508438 35.085808,75.090134 
	C34.578384,73.698273 34.105171,73.019928 32.917095,71.316826 
	C33.182644,73.501961 33.292858,74.408875 33.403072,75.315796 
	C33.403072,80.926544 33.403072,86.537300 33.403072,92.447281 
	C31.651413,92.447281 30.088425,92.447281 28.199095,92.447281 
	C28.199095,83.073769 28.199095,73.859276 28.199095,64.657471 
	C36.506397,62.895641 36.690094,62.997040 39.259544,70.438385 
	C40.644936,74.450607 42.051136,78.455643 43.917408,83.811066 
	C45.729130,78.622711 47.150471,74.659805 48.497459,70.671799 
	C51.056988,63.093826 51.039322,63.087860 59.634453,64.581375 
	C59.634453,73.627495 59.634453,82.723305 59.634453,92.288773 
	C57.825066,92.288773 55.965355,92.288773 53.391396,92.288773 
	C53.391396,86.947281 53.391396,81.539322 53.692963,75.429741 
	C53.945591,73.752151 53.896656,72.776199 53.847721,71.800240 
	C53.536747,71.772636 53.225773,71.745026 52.914795,71.717422 
	C52.626244,72.832748 52.337692,73.948082 52.049141,75.063408 
z"/>
<path fill="#151515" opacity="1.000000" stroke="none" 
	d="
M125.669670,82.392883 
	C123.876312,79.662964 122.288734,77.235802 120.701157,74.808647 
	C120.368378,74.904877 120.035606,75.001106 119.702835,75.097336 
	C119.702835,80.795998 119.702835,86.494659 119.702835,92.476486 
	C117.420258,92.476486 115.703644,92.476486 113.726410,92.476486 
	C113.726410,82.952400 113.726410,73.695251 113.726410,64.514397 
	C118.233658,62.857319 121.036774,64.322357 123.224396,68.312592 
	C125.669495,72.772453 128.654404,76.936363 132.395279,81.017097 
	C132.395279,75.542198 132.395279,70.067299 132.395279,64.287033 
	C134.752502,64.287033 136.490906,64.287033 138.522919,64.287033 
	C138.522919,73.586823 138.522919,82.835098 138.522919,92.228149 
	C134.638519,93.609154 131.797455,92.894417 129.879242,89.022583 
	C128.777283,86.798340 127.225014,84.797203 125.669670,82.392883 
z"/>
<path fill="#131313" opacity="1.000000" stroke="none" 
	d="
M384.294678,66.580437 
	C384.298401,75.338524 384.298401,83.649780 384.298401,92.074295 
	C380.253662,93.619736 377.586487,92.854393 375.467041,89.066582 
	C372.820404,84.336533 369.662750,79.892426 365.600281,75.510429 
	C365.600281,80.976181 365.600281,86.441933 365.600281,92.411301 
	C363.199738,92.575706 361.479706,92.693504 359.393951,92.836342 
	C359.393951,83.122757 359.393951,73.735779 359.393951,64.401733 
	C363.827911,63.041229 366.705780,64.316856 368.868011,68.373444 
	C371.288818,72.915054 374.318390,77.132195 377.849304,82.698486 
	C377.849304,75.882881 377.849304,70.267952 377.849304,62.721531 
	C380.820709,64.295464 382.555817,65.214539 384.294678,66.580437 
z"/>
<path fill="#161616" opacity="1.000000" stroke="none" 
	d="
M298.348267,71.706062 
	C297.224731,73.873123 296.150177,75.684113 294.920319,77.756790 
	C298.840332,79.630615 300.471130,83.040642 298.925903,87.355415 
	C297.425293,91.545570 293.611755,92.567871 289.628296,92.742935 
	C286.156677,92.895500 282.673065,92.774719 278.774750,92.774719 
	C278.774750,83.201714 278.774750,73.861656 278.774750,64.168579 
	C283.093353,64.168579 287.383698,63.855396 291.605438,64.259277 
	C295.590332,64.640503 298.471161,66.750687 298.348267,71.706062 
M288.142059,88.078087 
	C290.933441,87.883751 293.697021,86.501205 292.510376,83.730843 
	C291.695862,81.829262 288.307617,81.030083 286.069824,79.738129 
	C285.718475,80.200706 285.367126,80.663277 285.015747,81.125847 
	C285.970642,83.394119 282.383789,86.883575 288.142059,88.078087 
M291.002289,70.068840 
	C289.146790,69.504288 287.291290,68.939728 285.150818,68.288475 
	C285.150818,71.444649 285.150818,73.539291 285.150818,75.778687 
	C289.176971,76.187851 292.186035,75.822227 291.002289,70.068840 
z"/>
<path fill="#181818" opacity="1.000000" stroke="none" 
	d="
M107.545029,92.793869 
	C103.487877,93.553314 102.514412,90.688553 100.936142,88.351173 
	C99.238136,85.836441 98.835327,81.810905 93.883461,81.867966 
	C93.883461,85.435051 93.883461,88.827187 93.883461,92.499771 
	C91.592690,92.499771 89.838425,92.499771 87.684769,92.499771 
	C87.684769,83.127106 87.684769,73.790070 87.684769,63.965397 
	C90.801514,63.965397 93.750519,63.945194 96.699158,63.970211 
	C100.949036,64.006271 105.322662,64.152077 107.095322,68.969421 
	C108.862953,73.773064 106.389671,77.150162 102.540817,79.534935 
	C104.909737,83.246170 107.211494,86.685532 109.257164,90.271004 
	C109.508751,90.711960 108.392143,91.933540 107.545029,92.793869 
M99.803146,75.335953 
	C101.871391,69.981209 100.517784,68.505791 94.124184,69.346001 
	C94.124184,71.728836 94.124184,74.126892 94.124184,77.083832 
	C96.116302,76.609558 97.663826,76.241127 99.803146,75.335953 
z"/>
<path fill="#131313" opacity="1.000000" stroke="none" 
	d="
M332.955383,66.259857 
	C333.771515,65.185150 334.536133,64.153275 335.391144,64.071976 
	C337.861511,63.837067 340.368561,63.959297 342.860657,63.988228 
	C346.994995,64.036217 351.156860,64.488708 352.722809,69.063248 
	C354.302338,73.677536 352.149811,77.104774 348.099609,79.471031 
	C350.760010,83.655106 353.385284,87.783958 356.125824,92.094070 
	C351.278046,93.752014 348.538147,92.530365 346.473053,88.312279 
	C345.176422,85.663734 344.411224,81.734413 339.452820,81.850487 
	C339.452820,85.397964 339.452820,88.800552 339.452820,92.482216 
	C337.183075,92.482216 335.439423,92.482216 332.945190,92.482216 
	C332.945190,83.877716 332.945190,75.307297 332.955383,66.259857 
M341.480133,76.828430 
	C344.919952,76.744286 347.128967,75.032501 346.236237,71.578438 
	C345.282349,67.887924 342.251526,68.646637 338.618561,69.437920 
	C339.363220,72.120476 340.009613,74.449074 341.480133,76.828430 
z"/>
<path fill="#131313" opacity="1.000000" stroke="none" 
	d="
M318.219421,92.427521 
	C308.065430,93.250267 304.201965,90.022552 303.762238,80.367508 
	C303.521271,75.076866 303.719116,69.766235 303.719116,64.226212 
	C305.794800,64.226212 307.570709,64.226212 310.063080,64.226212 
	C310.063080,69.666550 309.816711,75.117973 310.188354,80.526932 
	C310.330566,82.596313 311.353027,85.293762 312.907104,86.436371 
	C316.297272,88.928940 320.208801,86.234276 320.459534,81.225464 
	C320.740356,75.615250 320.524048,69.980156 320.524048,64.231369 
	C322.846497,64.231369 324.608612,64.231369 326.637726,64.231369 
	C326.637726,70.755783 326.932465,77.056793 326.541382,83.314957 
	C326.246307,88.037056 323.535828,91.335487 318.219421,92.427521 
z"/>
<path fill="#1A1A1A" opacity="1.000000" stroke="none" 
	d="
M72.090363,63.959503 
	C75.554192,63.959476 78.543419,63.959476 82.106087,63.959476 
	C82.207672,65.614090 82.301476,67.141968 82.416451,69.014664 
	C79.103165,69.172684 76.178940,69.312149 72.996124,69.463951 
	C72.996124,71.602524 72.996124,73.506874 72.996124,75.705017 
	C75.966888,75.855064 78.715248,75.993874 81.633423,76.141266 
	C81.633423,77.870262 81.633423,79.286591 81.633423,81.097672 
	C78.772713,81.097672 76.160934,81.097672 73.025970,81.097672 
	C72.905304,83.165764 72.805565,84.875130 72.673691,87.135269 
	C76.165871,87.307022 79.383308,87.465263 82.819855,87.634277 
	C82.819855,89.370216 82.819855,90.797882 82.819855,92.514572 
	C77.360367,92.514572 72.111069,92.514572 66.483582,92.514572 
	C66.483582,83.192055 66.483582,73.978889 66.483582,63.959530 
	C68.131721,63.959530 69.873749,63.959530 72.090363,63.959503 
z"/>
<path fill="#636363" opacity="1.000000" stroke="none" 
	d="
M52.316246,75.082611 
	C52.337692,73.948082 52.626244,72.832748 52.914795,71.717422 
	C53.225773,71.745026 53.536747,71.772636 53.847721,71.800240 
	C53.896656,72.776199 53.945591,73.752151 53.792511,75.054962 
	C53.254784,75.288483 52.919067,75.195152 52.316246,75.082611 
z"/>
<path fill="#737373" opacity="1.000000" stroke="none" 
	d="
M33.663921,75.359039 
	C33.292858,74.408875 33.182644,73.501961 32.917095,71.316826 
	C34.105171,73.019928 34.578384,73.698273 34.987427,74.729431 
	C34.590427,75.188919 34.257599,75.295601 33.663921,75.359039 
z"/>
<path fill="#FBAC2D" opacity="1.000000" stroke="none" 
	d="
M183.245697,87.534653 
	C178.014984,74.699295 181.666260,63.566029 189.203629,53.585571 
	C193.254578,48.221565 198.556885,43.760983 203.575012,39.201420 
	C204.681458,38.196083 207.673233,37.598728 208.616318,38.331940 
	C221.628418,48.448345 232.944519,59.823189 232.960541,77.886963 
	C232.971497,90.240448 224.528168,98.805161 213.778778,101.751450 
	C200.997345,105.254677 189.371780,99.556213 183.245697,87.534653 
M212.572876,70.256157 
	C211.534225,69.450058 210.495590,68.643951 209.272034,67.694336 
	C212.702042,65.120544 215.068054,62.201813 212.182770,58.089691 
	C209.949905,54.907425 203.518997,54.273388 199.828094,56.765728 
	C195.037888,60.000401 196.943680,63.768654 199.532501,67.569443 
	C195.084045,70.130104 192.067276,73.387138 194.221191,78.616936 
	C196.179382,83.371460 200.536270,84.110199 205.034912,84.000916 
	C206.658356,83.961479 208.436188,83.656128 209.847794,82.911484 
	C212.676254,81.419434 214.969284,81.016747 217.954803,83.060127 
	C219.491348,84.111771 222.356598,83.554924 224.509995,83.142685 
	C225.060959,83.037209 225.188293,80.718956 225.443695,79.686462 
	C222.771942,79.010498 220.718704,78.491028 218.881134,78.026115 
	C220.544830,73.776550 222.340637,70.373878 223.180191,66.749680 
	C224.266205,62.061680 223.268280,61.406052 218.639114,62.449467 
	C217.988998,65.282478 217.574081,68.063011 216.686996,70.683723 
	C215.793259,73.324081 214.348068,72.182686 212.572876,70.256157 
z"/>
<path fill="#E6E6E6" opacity="1.000000" stroke="none" 
	d="
M287.709351,88.085541 
	C282.383789,86.883575 285.970642,83.394119 285.015747,81.125847 
	C285.367126,80.663277 285.718475,80.200706 286.069824,79.738129 
	C288.307617,81.030083 291.695862,81.829262 292.510376,83.730843 
	C293.697021,86.501205 290.933441,87.883751 287.709351,88.085541 
z"/>
<path fill="#E4E4E4" opacity="1.000000" stroke="none" 
	d="
M291.190613,70.420837 
	C292.186035,75.822227 289.176971,76.187851 285.150818,75.778687 
	C285.150818,73.539291 285.150818,71.444649 285.150818,68.288475 
	C287.291290,68.939728 289.146790,69.504288 291.190613,70.420837 
z"/>
<path fill="#E4E4E4" opacity="1.000000" stroke="none" 
	d="
M99.507248,75.604324 
	C97.663826,76.241127 96.116302,76.609558 94.124184,77.083832 
	C94.124184,74.126892 94.124184,71.728836 94.124184,69.346001 
	C100.517784,68.505791 101.871391,69.981209 99.507248,75.604324 
z"/>
<path fill="#E1E1E1" opacity="1.000000" stroke="none" 
	d="
M341.068054,76.803055 
	C340.009613,74.449074 339.363220,72.120476 338.618561,69.437920 
	C342.251526,68.646637 345.282349,67.887924 346.236237,71.578438 
	C347.128967,75.032501 344.919952,76.744286 341.068054,76.803055 
z"/>
<path fill="#130D03" opacity="1.000000" stroke="none" 
	d="
M212.836945,70.521194 
	C214.348068,72.182686 215.793259,73.324081 216.686996,70.683723 
	C217.574081,68.063011 217.988998,65.282478 218.639114,62.449467 
	C223.268280,61.406052 224.266205,62.061680 223.180191,66.749680 
	C222.340637,70.373878 220.544830,73.776550 218.881134,78.026115 
	C220.718704,78.491028 222.771942,79.010498 225.443695,79.686462 
	C225.188293,80.718956 225.060959,83.037209 224.509995,83.142685 
	C222.356598,83.554924 219.491348,84.111771 217.954803,83.060127 
	C214.969284,81.016747 212.676254,81.419434 209.847794,82.911484 
	C208.436188,83.656128 206.658356,83.961479 205.034912,84.000916 
	C200.536270,84.110199 196.179382,83.371460 194.221191,78.616936 
	C192.067276,73.387138 195.084045,70.130104 199.532501,67.569443 
	C196.943680,63.768654 195.037888,60.000401 199.828094,56.765728 
	C203.518997,54.273388 209.949905,54.907425 212.182770,58.089691 
	C215.068054,62.201813 212.702042,65.120544 209.272034,67.694336 
	C210.495590,68.643951 211.534225,69.450058 212.836945,70.521194 
M206.861496,71.635529 
	C204.396240,69.510193 202.030304,70.027351 200.826355,72.716599 
	C200.183441,74.152710 200.355499,77.118507 201.345230,77.908257 
	C204.676941,80.566780 208.047089,79.267326 211.515976,76.397057 
	C210.057831,74.846237 208.749786,73.455040 206.861496,71.635529 
M202.510742,62.478199 
	C203.280777,64.640854 204.563263,66.300781 206.728836,64.263878 
	C207.493484,63.544674 207.024750,61.514217 207.119141,60.082432 
	C205.579254,60.647434 204.039352,61.212437 202.510742,62.478199 
z"/>
<path fill="#ECA32B" opacity="1.000000" stroke="none" 
	d="
M207.151611,71.849686 
	C208.749786,73.455040 210.057831,74.846237 211.515976,76.397057 
	C208.047089,79.267326 204.676941,80.566780 201.345230,77.908257 
	C200.355499,77.118507 200.183441,74.152710 200.826355,72.716599 
	C202.030304,70.027351 204.396240,69.510193 207.151611,71.849686 
z"/>
<path fill="#CE8E25" opacity="1.000000" stroke="none" 
	d="
M202.505096,62.127819 
	C204.039352,61.212437 205.579254,60.647434 207.119141,60.082432 
	C207.024750,61.514217 207.493484,63.544674 206.728836,64.263878 
	C204.563263,66.300781 203.280777,64.640854 202.505096,62.127819 
z"/>
</svg>